<?xml version="1.0" encoding="UTF-8"?>
<svg xmlns="http://www.w3.org/2000/svg" xmlns:xlink="http://www.w3.org/1999/xlink" width="96pt" height="96pt" viewBox="0 0 96 96" version="1.1">
<g id="surface8075601">
<path style=" stroke:none;fill-rule:nonzero;fill:rgb(73.333333%,73.333333%,80%);fill-opacity:1;" d="M 48 12 C 28.148438 12 12 28.148438 12 48 C 12 67.851562 28.148438 84 48 84 C 67.851562 84 84 67.851562 84 48 C 84 28.148438 67.851562 12 48 12 Z M 48 18 C 55.605469 18 62.496094 20.859375 67.78125 25.5 C 67.21875 26.285156 66.457031 27.234375 65.25 28.40625 C 62.683594 30.890625 58.582031 33.878906 52.3125 36.1875 C 48.070312 28.347656 43.910156 22.453125 41.15625 18.75 C 43.347656 18.246094 45.644531 18 48 18 Z M 35.25 20.8125 C 37.710938 24.035156 42.09375 30.011719 46.5 37.96875 C 34.300781 41.203125 23.109375 41.613281 18.65625 41.625 C 20.648438 32.355469 26.882812 24.726562 35.25 20.8125 Z M 71.90625 29.90625 C 75.5625 34.746094 77.835938 40.734375 78 47.25 C 75.328125 46.652344 71.390625 46.066406 66.28125 46.03125 C 63.621094 46.019531 60.609375 46.207031 57.375 46.59375 C 56.625 44.882812 55.816406 43.230469 55.03125 41.625 C 61.757812 39.046875 66.339844 35.648438 69.375 32.71875 C 70.40625 31.710938 71.214844 30.785156 71.90625 29.90625 Z M 49.21875 43.40625 C 49.910156 44.800781 50.613281 46.230469 51.28125 47.71875 C 38.460938 51.269531 29.25 62.144531 25.3125 67.59375 C 20.777344 62.34375 18 55.5 18 48 C 18 47.871094 18 47.753906 18 47.625 C 22.054688 47.671875 34.945312 47.390625 49.21875 43.40625 Z M 66.28125 51.9375 C 71.636719 51.9375 75.339844 52.6875 77.53125 53.25 C 76.136719 61.242188 71.625 68.097656 65.25 72.5625 C 64.054688 65.390625 62.085938 58.570312 59.71875 52.3125 C 62.085938 52.078125 64.324219 51.9375 66.28125 51.9375 Z M 53.625 53.34375 C 56.320312 60.1875 58.582031 67.699219 59.71875 75.65625 C 56.132812 77.167969 52.148438 78 48 78 C 41.121094 78 34.769531 75.691406 29.71875 71.8125 C 32.800781 67.59375 41.859375 56.367188 53.625 53.34375 Z M 53.625 53.34375 "/>
</g>
</svg>
