<?xml version="1.0" encoding="UTF-8"?>
<svg xmlns="http://www.w3.org/2000/svg" xmlns:xlink="http://www.w3.org/1999/xlink" width="104pt" height="104pt" viewBox="0 0 104 104" version="1.1">
<g id="surface7967416">
<path style=" stroke:none;fill-rule:nonzero;fill:rgb(73.333333%,73.333333%,80%);fill-opacity:1;" d="M 84.5 0 L 19.5 0 C 8.734375 0 0 8.734375 0 19.5 L 0 84.5 C 0 95.265625 8.734375 104 19.5 104 L 84.5 104 C 95.265625 104 104 95.265625 104 84.5 L 104 19.5 C 104 8.734375 95.265625 0 84.5 0 Z M 32.15625 88.28125 L 16 88.28125 L 15.90625 39.90625 L 32.0625 39.90625 Z M 23.671875 33.578125 L 23.578125 33.578125 C 18.296875 33.578125 14.890625 29.9375 14.890625 25.40625 C 14.890625 20.765625 18.40625 17.25 23.78125 17.25 C 29.15625 17.25 32.453125 20.765625 32.5625 25.40625 C 32.5625 29.9375 29.140625 33.578125 23.671875 33.578125 Z M 88.171875 88.28125 L 71.875 88.28125 L 71.875 62 C 71.875 55.640625 70.1875 51.3125 64.5 51.3125 C 60.15625 51.3125 57.8125 54.234375 56.6875 57.0625 C 56.265625 58.078125 56.15625 59.46875 56.15625 60.890625 L 56.15625 88.28125 L 39.78125 88.28125 L 39.6875 39.90625 L 56.0625 39.90625 L 56.15625 46.734375 C 58.25 43.5 61.734375 38.921875 70.078125 38.921875 C 80.421875 38.921875 88.15625 45.671875 88.15625 60.1875 L 88.15625 88.28125 Z M 88.171875 88.28125 "/>
</g>
</svg>
